<svg xmlns="http://www.w3.org/2000/svg" viewBox="0 0 100 100"><defs><clipPath id="circle"><circle cx="50" cy="50" r="50"/></clipPath></defs><g clip-path="url(#circle)"><path fill="#4daf42" d="M0 0H100V100H0Z"/><g fill="#f8d66c"><path d="M24 83V35C24 7 76 9 76 35V83L65 73V32C52 42 44 28 36 33V73Z"/></g><path fill="#5c335b" d="M12 100V88Q15 76 39 73H61Q85 76 88 88V100Z"/><path fill="#eabc92" d="M41 62H59V75Q50 86 41 75Z"/><path fill="#000" opacity=".09" d="M41 63H59V70Q50 77 41 69Z"/><ellipse fill="#eabc92" cx="32" cy="47" rx="5" ry="7"/><ellipse fill="#eabc92" cx="68" cy="47" rx="5" ry="7"/><path fill="#eabc92" d="M33 33Q50 22 67 33V50Q65 68 50 69Q35 68 33 50Z"/><g fill="#f8d66c"><path d="M24 83V35C24 7 76 9 76 35V83L65 73V32C52 42 44 28 36 33V73Z"/></g><g fill="#3b2d25"><circle cx="41" cy="47" r="1.7"/><circle cx="59" cy="47" r="1.7"/></g><path d="M44 58Q50 62 56 58" stroke="#fff8e8" stroke-width="2.7" fill="none" stroke-linecap="round"/></g></svg>